<svg aria-hidden="true" style="position:absolute;width:0;height:0" xmlns="http://www.w3.org/2000/svg" overflow="hidden"><defs><symbol id="icon-antenna1" viewBox="0 0 32 32"><path fill="var(--color1, #212121)" d="M30.773 22.098l-8.443-8.505.937-4.616c.225.09.485.144.758.146h.033a2.16 2.16 0 10-2.029-1.42l-.005-.015-4.96.606L8.973.161a.53.53 0 00-.376-.16.536.536 0 00-.373.155L6.712 1.66a.535.535 0 000 .754l.814.825C6.383 5.301 5.71 7.761 5.71 10.378c0 4.106 1.656 7.824 4.336 10.525l-.001-.001a.49.49 0 00.146.097 2.986 2.986 0 00-.052.546v6.188h-6.4a2.669 2.669 0 00-2.667 2.666v1.067c0 .295.239.534.534.534H26.14a.534.534 0 00.533-.534v-1.067a2.67 2.67 0 00-2.666-2.666h-6.4v-2.742a14.784 14.784 0 0010.166-1.502l-.077.039.818.823a.534.534 0 00.376.16.536.536 0 00.373-.155l1.512-1.504a.535.535 0 000-.754zM23.28 6.233a1.067 1.067 0 11.752 1.822h-.004a1.066 1.066 0 01-.747-1.822h-.002zm-1.256 3.504l-.598 2.946-1.175-1.183 1.774-1.763zm-.605-.902l-1.92 1.909-1.486-1.493 3.406-.416zM24.004 28.8a1.6 1.6 0 011.6 1.6v.534H2.138V30.4a1.6 1.6 0 011.6-1.6h20.267zm-7.466-2.134v1.067h-5.334v-1.067h5.334zM11.204 25.6v-4.053c0-1.294 1.196-2.346 2.667-2.346s2.667 1.053 2.667 2.346V25.6h-5.334zm6.4-1.696v-2.357c0-1.882-1.675-3.413-3.733-3.413h-.058c-1.353 0-2.54.707-3.213 1.771l-.009.016a13.817 13.817 0 01-3.812-9.55c0-2.314.567-4.496 1.569-6.414l-.036.077 18.602 18.709c-1.823.947-3.979 1.502-6.266 1.502-1.079 0-2.128-.124-3.136-.357l.093.018zm11.289-.684L7.836 2.039l.754-.752 7.935 7.98c.004 0 .006.007.01.01l13.114 13.191-.757.752z"/><path fill="var(--color2, #2196f3)" d="M13.876 20.267h-.007a1.6 1.6 0 00-.003 3.2h.007a1.6 1.6 0 00.002-3.2zm.373 1.978a.534.534 0 11-.378-.912.533.533 0 01.373.911h.005z"/></symbol><symbol id="icon-astronaut1" viewBox="0 0 32 32"><path fill="var(--color2, #2196f3)" d="M31.974 4.524a.535.535 0 00-.427-.362h-.003l-1.911-.278-.855-1.731c-.179-.365-.777-.365-.956 0l-.855 1.731-1.911.278a.534.534 0 00-.296.91l1.383 1.348-.326 1.903a.532.532 0 00.774.562l1.709-.899 1.709.899a.534.534 0 00.773-.566v.003l-.326-1.903 1.383-1.348a.535.535 0 00.134-.55l.001.004zm-2.463 1.327a.53.53 0 00-.153.472l.191 1.114-1-.526a.525.525 0 00-.501.001l.003-.001-1 .526.191-1.114a.533.533 0 00-.153-.472l-.81-.789 1.119-.163a.53.53 0 00.401-.292l.501-1.013.5 1.013a.532.532 0 00.402.292l1.119.162-.809.79zm-3.377 14.671h-1.067v1.067h1.067v-1.067zm0 2.134h-1.067v1.066h1.067v-1.066zm1.066-1.067h-1.067v1.067H27.2v-1.067zM25.067 21.589H24v1.067h1.067v-1.067zm-2.667 4.8h-1.067v1.067H22.4v-1.067zm0 2.134h-1.067v1.067H22.4v-1.067zm1.067-1.067H22.4v1.067h1.067v-1.067zm-2.133 0h-1.067v1.067h1.067v-1.067zM16 24.256h-1.067v1.067H16v-1.067zm0 2.133h-1.067v1.067H16v-1.067zm1.067-1.067H16v1.067h1.067v-1.067z"/><path fill="var(--color2, #2196f3)" d="M14.934 25.322h-1.067v1.067h1.067v-1.067zm-9.067-19.2H4.8v1.066h1.067V6.122zm0 2.134H4.8v1.066h1.067V8.256zm1.066-1.067H5.866v1.067h1.066V7.189zm-2.133 0H3.733v1.067H4.8V7.189z"/><path fill="var(--color1, #212121)" d="M24.715 14.16a1.774 1.774 0 00-1.179-.703l-.009-.001a1.769 1.769 0 00-1.344.355l.004-.003-1.253.96-1.898 1.417-1.358-.541c2.421-1.086 4.113-3.508 4.113-6.32 0-3.823-3.122-6.934-6.961-6.934S7.869 5.5 7.869 9.324c0 1.386.415 2.674 1.12 3.759l-2.768-.024c-.009 0-.016.005-.023.005a.511.511 0 00-.159.033l.004-.001c-.013.005-.026.007-.038.013-.006.003-.013.003-.019.006l-3.233 1.596-.001.001-1.893.91a.429.429 0 00-.064.036l.001-.001a1.782 1.782 0 00-.594 2.306l-.005-.01c.22.424.592.742 1.043.885l.013.003a1.772 1.772 0 001.388-.133l-.009.005 1.388-.738 2.264-1.169 1.357-.008-5.442 5.415-.001.001-1.339 1.333c-.303.299-.49.714-.49 1.173v.005a1.66 1.66 0 001.666 1.663h.004a1.67 1.67 0 001.18-.485l1.314-1.309 1.741-1.3.901.897-3.102 3.088a1.645 1.645 0 00-.491 1.174v.004a1.662 1.662 0 001.666 1.664h.003a1.67 1.67 0 001.18-.485l4.488-4.472c.007-.006.016-.009.022-.016l5.166-5.658 3.471.494a.474.474 0 00.262-.032c.018-.006.033-.015.05-.023.019-.01.039-.015.058-.027l3.213-2.133c.012-.008.018-.021.029-.03.013-.01.029-.014.041-.026l1.271-1.191c.348-.326.564-.787.564-1.3 0-.4-.132-.769-.355-1.066l.003.005zM2.13 17.77a.706.706 0 01-.564.05l.005.001a.717.717 0 01-.214-1.258l.002-.001 1.314-.632.316.924.133.389-.992.527zm3.497-1.828l-1.548.8-.255-.746-.184-.537 2.027-1.001-.04 1.484zm15.1-6.62c0 .918-.219 1.785-.599 2.56l-4.181-1.899a1.865 1.865 0 00-.782-1.384l-.006-.004 1.463-4.861c2.378.756 4.105 2.974 4.105 5.588zm-11.789 0c0-3.235 2.644-5.867 5.894-5.867.253 0 .5.022.745.053l-1.432 4.753c-.019 0-.037-.006-.057-.006h-.001a1.872 1.872 0 00-1.872 1.867 1.873 1.873 0 001.872 1.867h.001c.695 0 1.295-.383 1.618-.944l3.863 1.755a5.893 5.893 0 01-4.737 2.389c-3.25 0-5.894-2.632-5.894-5.867zm5.957.8c0 .441-.362.8-.806.8h-.001a.804.804 0 01-.804-.8c0-.441.361-.8.806-.8s.806.359.806.8zM2.464 25.146a.606.606 0 01-.855.001.591.591 0 010-.844l.962-.959.852.848-.959.955zm3.214 3.734a.606.606 0 01-.855.001.591.591 0 010-.844l.963-.959.852.848-.96.955zm3.482-3.469l-.001.001-1.765 1.76-.852-.848 1.765-1.757a.527.527 0 00.09-.136c.007-.014.02-.026.026-.04.016-.041.019-.085.026-.128.003-.025.014-.048.014-.073 0-.035-.013-.07-.02-.105-.006-.032-.006-.064-.019-.096a.536.536 0 00-.092-.138c-.01-.012-.014-.027-.025-.038h-.001l-.001-.002-1.607-1.6c-.017-.017-.039-.024-.058-.038a.563.563 0 00-.084-.057l-.003-.001a.415.415 0 00-.09-.031l-.003-.001a.502.502 0 00-.101-.02h-.002l-.023-.001a.603.603 0 00-.075.005h.003c-.036.005-.069.009-.104.021a.512.512 0 00-.097.046l.002-.001c-.02.011-.042.015-.061.029l-1.773 1.324-.901-.897 2.399-2.386 4.361 4.289-.928.919zm6.819-7.017c-.015-.002-.03.004-.045.003l-.027-.001a.562.562 0 00-.092.008h.003a.484.484 0 00-.187.07l.002-.001a.492.492 0 00-.083.061c-.013.011-.028.016-.04.029l-4.698 5.146-4.328-4.256 2.833-2.818a.535.535 0 00-.378-.911h-.002l-2.219.013.028-1.607 3.104.027a6.928 6.928 0 004.978 2.101h.003c.438 0 .864-.046 1.28-.122.04.032.08.064.129.085l2.41.96.152.759.178.885-3.003-.427zm4.041.178l-.313-1.558 1.446-1.08.946 1.257-2.08 1.381zm3.754-2.831l-.838.785-.931-1.237.831-.637a.735.735 0 01.543-.143.718.718 0 01.621.71.71.71 0 01-.226.521z"/><path fill="var(--color1, #212121)" d="M13.602 18.544l-2.143-2.134a.53.53 0 00-.752 0l-2.143 2.134a.535.535 0 000 .756l2.143 2.134a.53.53 0 00.752 0l2.143-2.134a.532.532 0 000-.756zm-2.519 1.759l-1.387-1.381 1.386-1.381 1.387 1.381-1.387 1.381zm6.081-15.232l-.258 1.036c.071.018 1.738.452 1.738 2.149h1.067c0-2.017-1.666-2.965-2.547-3.184zm2.547 4.251h-1.067v1.066h1.067V9.322z"/></symbol><symbol id="icon-brand" viewBox="0 0 40 32"><path fill="var(--color3, #afb1b8)" d="M3.056 26.742c.157.194.24.438.236.688l.001.053c0 .324-.141.615-.365.815l-.001.001a1.575 1.575 0 01-1.061.317H.001v-4.361h1.827a1.548 1.548 0 011.017.294l-.004-.003a.994.994 0 01.353.818v-.003c.011.24-.065.477-.212.667a.99.99 0 01-.556.34c.247.046.471.177.63.373zm-2.188-.658h.78a.733.733 0 00.497-.145.518.518 0 00.169-.383l-.002-.045v.002l.001-.037a.535.535 0 00-.167-.389.75.75 0 00-.514-.147h.003-.767v1.144zm1.354 1.672a.542.542 0 00.186-.408l-.001-.036v.002l.001-.032a.552.552 0 00-.189-.416l-.001-.001a.8.8 0 00-.48-.159l-.054.002h.002-.818v1.199h.829a.816.816 0 00.524-.151zm4.567.861l-1.016-1.704h-.382v1.704h-.874v-4.361h1.654a1.624 1.624 0 011.156.373l-.003-.002a1.391 1.391 0 01.12 1.808l.003-.004a1.337 1.337 0 01-.789.443l1.083 1.743H6.79zm-1.397-2.299h.715c.497 0 .745-.22.745-.66l.001-.037a.647.647 0 00-.184-.453.767.767 0 00-.566-.177h.003-.724l.009 1.328zm6.176 1.421H9.826l-.308.878h-.916l1.6-4.313h.991l1.593 4.312h-.916l-.301-.878zm-.233-.66l-.637-1.84-.637 1.84h1.273zm6.215 1.538h-.869l-1.945-2.965v2.965h-.866v-4.361h.866l1.945 2.982v-2.982h.868v4.361zm4.952-1.044c-.182.33-.45.593-.775.764l-.01.005a2.545 2.545 0 01-1.22.274h-1.546v-4.361h1.546l.067-.001c.42 0 .817.1 1.168.277l-.015-.007c.332.168.606.433.785.761.171.333.272.727.272 1.144s-.1.811-.278 1.158l.007-.014zm-.993-.104c.239-.278.384-.642.384-1.041s-.145-.763-.386-1.043l.002.002a1.5 1.5 0 00-1.091-.371h.004-.603v2.823h.603a1.496 1.496 0 001.088-.372l-.002.001zM12.112 0s11.201 4.246 10.962 10.39v10.392S11.881 16.534 12.115 10.39L12.112 0zm20.942 18.349a15.15 15.15 0 017.049-2.628l.068-.006v-3.253c-2.995 1.181-5.436 3.227-7.081 5.827l-.035.06z"/><path fill="var(--color3, #afb1b8)" d="M31.782 19.329c1.749-3.487 4.693-6.158 8.283-7.513l.105-.035V2.408S24.218 8.456 24.555 17.205v14.796s.711-.27 1.829-.778c0-.473 0-.95.051-1.43a15.39 15.39 0 015.325-10.446l.021-.017z"/><path fill="var(--color3, #afb1b8)" d="M30.266 24.825a15.3 15.3 0 01.558-3.03 14.243 14.243 0 00-3.378 8.921v.016a43.71 43.71 0 003.286-1.741l-.218.118c-.191-.908-.3-1.952-.3-3.021 0-.445.019-.885.056-1.32l-.004.057zm.634.053a14.803 14.803 0 00.212 3.971l-.015-.092c4.358-2.619 9.255-6.664 9.067-11.553v-.426a14.265 14.265 0 00-8.297 3.894l.005-.005a14.228 14.228 0 00-.968 4.158l-.003.052z"/></symbol><symbol id="icon-Client1" viewBox="0 0 60 32"><path fill="var(--color3, #afb1b8)" d="M24.533 7.111l2.598 2.46h7.248v6.862l2.598 2.46V7.112H24.533z"/><path fill="var(--color3, #afb1b8)" d="M22.4 9.467v11.444h12.089v-4.549l-7.281-6.893-4.808-.003zm9.786 9.771h-7.873v-7.697h.556v7.176h7.317v.521zm-6.305 3.796l.291-.599h.243l-.424.799v.465h-.22v-.465l-.424-.798h.244l.291.599zm1.248.371h-.489l-.102.294h-.228l.477-1.264h.197l.478 1.264h-.229l-.103-.294zm-.428-.177h.366l-.183-.524-.183.524zm1.294.13c0-.058.016-.112.048-.16a.778.778 0 01.188-.175.795.795 0 01-.101-.153l-.002-.005a.32.32 0 01-.029-.126c0-.099.03-.177.09-.235s.141-.087.243-.087c.092 0 .167.027.226.082s.089.121.089.201v.002a.275.275 0 01-.041.145l.001-.001a.477.477 0 01-.13.131l-.002.001-.086.063.244.288a.504.504 0 00.053-.231h.183a.634.634 0 01-.11.383l.186.22H28.8l-.071-.084a.517.517 0 01-.31.102h-.014.001a.438.438 0 01-.3-.099.331.331 0 01-.112-.249v-.012.001zm.418.19a.321.321 0 00.199-.071l-.276-.326-.027.019c-.069.053-.104.113-.104.181 0 .058.019.106.057.142a.207.207 0 00.141.055h.011zm-.116-.814c0 .049.03.11.09.183l.096-.066.027-.022a.157.157 0 00.054-.118v-.005-.001a.11.11 0 00-.037-.083.13.13 0 00-.09-.036h-.01a.123.123 0 00-.093.042.154.154 0 00-.037.1v.006zm2.296.554c-.013.135-.063.24-.149.316s-.202.113-.346.113a.505.505 0 01-.267-.071.481.481 0 01-.176-.201l-.001-.003a.726.726 0 01-.065-.302v-.123c0-.119.021-.224.063-.315a.478.478 0 01.455-.284c.139 0 .252.038.337.114s.134.183.148.321h-.219c-.011-.091-.037-.156-.08-.196s-.105-.061-.187-.061c-.095 0-.169.035-.22.105s-.077.172-.078.306v.112c0 .137.025.241.073.313s.121.108.215.108c.086 0 .151-.02.195-.058s.071-.103.082-.193h.219zm1.206-.188c0 .124-.021.233-.064.326s-.105.165-.184.215a.503.503 0 01-.274.075.508.508 0 01-.274-.075.503.503 0 01-.185-.211l-.001-.003a.739.739 0 01-.066-.308v-.012.001-.071c0-.123.021-.232.065-.326s.106-.166.185-.216c.08-.05.171-.076.274-.076s.194.025.273.075c.08.049.141.121.185.213s.065.201.066.324v.07zm-.22-.066a.553.553 0 00-.08-.322.258.258 0 00-.213-.112h-.012.001-.009a.26.26 0 00-.213.111l-.001.001a.55.55 0 00-.082.315v.073c0 .139.027.246.081.322s.129.114.225.114c.097 0 .172-.037.224-.111s.079-.182.079-.325v-.066z"/></symbol><symbol id="icon-Client2" viewBox="0 0 60 32"><path fill="var(--color3, #afb1b8)" d="M29.147 7.799h.048c.09 0 .187.009.283.017.466.034.897.101 1.314.201l-.055-.011V6.988a7.522 7.522 0 00-1.3-.207 8.91 8.91 0 00-.513-.025h-.164c-.88.004-1.756.116-2.609.336-.971.242-1.902.621-2.768 1.126v10.097a10.96 10.96 0 012.56-1.011l.078-.017a11.144 11.144 0 012.184-.339l.03-.001h.03c.125-.006.25-.01.379-.011v-1.035a12.208 12.208 0 00-2.963.402l.085-.019c-.348.091-.684.188-1 .297l-.36.122V8.83l.154-.074a9.86 9.86 0 013.712-.953l.027-.001.016-.001.017.001h-.001c.143-.007.287-.011.428-.011h.162c.075.002.149.004.224.008z"/><path fill="var(--color3, #afb1b8)" d="M31.684 8.865h-.009a9.214 9.214 0 01-1.551-.13l.054.008a8.34 8.34 0 01-.526-.106l.056.011v9.981c.647.16 1.312.238 1.979.233a10.672 10.672 0 002.683-.352l-.074.017a10.547 10.547 0 002.818-1.153l-.049.027V7.485c-.758.421-1.635.773-2.559 1.011l-.078.017c-.896.23-1.817.348-2.742.352zm3.991.172l.36-.121v7.875l-.154.074a9.429 9.429 0 01-1.771.646l-.069.015a9.584 9.584 0 01-2.354.305c-.238 0-.473-.01-.701-.03l-.246-.022V9.68l.287.019c.19.013.411.02.634.02h.026-.001a12.2 12.2 0 003.074-.402l-.085.019c.336-.089.669-.188 1-.299zM24.084 21.764a.53.53 0 00-.382-.162h-.019.001-.008a.593.593 0 00-.227.045l.004-.001a.524.524 0 00-.295.296l-.001.004a.589.589 0 00-.042.223v1.349a.63.63 0 00.053.277.482.482 0 00.32.277.77.77 0 00.202.028.568.568 0 00.559-.568v-.151h-.353v.127a.314.314 0 01-.022.115l.001-.002a.212.212 0 01-.051.076.25.25 0 01-.147.052l-.021.001a.178.178 0 01-.144-.073.313.313 0 01-.047-.167v-.014.001-1.258a.44.44 0 01.043-.202.181.181 0 01.174-.082h-.001.007c.062 0 .116.03.15.076a.283.283 0 01.059.174v.125h.349v-.138-.006a.625.625 0 00-.045-.234l.002.004a.565.565 0 00-.118-.19zm2.095-.015a.623.623 0 00-.401-.149.6.6 0 00-.21.038.556.556 0 00-.322.296l-.001.003a.63.63 0 00-.052.261v1.294a.54.54 0 00.188.446.59.59 0 00.396.151.603.603 0 00.402-.152l-.001.001a.528.528 0 00.133-.181.62.62 0 00.051-.265v-1.294-.012a.626.626 0 00-.053-.253l.002.004a.586.586 0 00-.133-.189zm-.164 1.744l.001.02a.23.23 0 01-.071.167.256.256 0 01-.332-.001.23.23 0 01-.071-.167l.001-.021v.001-1.294l-.001-.02a.23.23 0 01.071-.167.256.256 0 01.332.001.23.23 0 01.071.167l-.001.021v-.001 1.294zm2.916.578v-2.45h-.339l-.445 1.297h-.006l-.449-1.296h-.336v2.449h.35v-1.49h.006l.343 1.053h.174l.346-1.053h.006v1.49h.35zm1.987-2.278a.488.488 0 00-.198-.134.764.764 0 00-.24-.038h-.533v2.45h.349v-.957h.18a.638.638 0 00.315-.067.511.511 0 00.19-.185l.001-.002a.586.586 0 00.08-.213 1.7 1.7 0 00.019-.256v-.023.001a1.377 1.377 0 00-.034-.35.52.52 0 00-.129-.225zm-.18.747a.294.294 0 01-.033.129l.001-.002a.193.193 0 01-.089.085h-.001a.348.348 0 01-.147.031h-.019.001-.159v-.833h.197a.33.33 0 01.143.032l-.002-.001a.2.2 0 01.081.089v.001a.38.38 0 01.031.137v.163c0 .057.004.116 0 .168h-.004zm1.833-.919h-.286l-.54 2.45h.349l.102-.526h.476l.103.526h.349l-.553-2.45zm-.321 1.59l.172-.888h.006l.171.888h-.349zm2.577-.114h-.006l-.527-1.476h-.335v2.45h.349v-1.473h.007l.533 1.473h.329v-2.449h-.349v1.476zm2.132-1.476l-.281.974h-.007l-.281-.974h-.37l.479 1.414v1.035h.349v-1.035l.479-1.414h-.369zm-13.848 3.141h.168v.472h.114v-.472h.167v-.097h-.449v.097zm1.414-.096l-.22.569h.121l.047-.129h.227l.048.129h.124l-.226-.569h-.121zm-.018.343l.077-.211.077.211h-.155zm1.416.016h.132v.073a.214.214 0 01-.135.048h-.008a.145.145 0 01-.113-.054.24.24 0 01-.042-.136v-.013.001c0-.127.055-.19.164-.19l.012-.001a.12.12 0 01.116.09v.001l.112-.022c-.024-.111-.104-.167-.241-.167h-.008a.289.289 0 00-.191.073.276.276 0 00-.082.219v-.001.013c0 .076.028.146.074.201.05.052.12.084.198.084l.019-.001h-.001.01a.339.339 0 00.232-.091v-.224h-.246v.096zm1.427-.359h-.114v.569h.398v-.097h-.283v-.472zm1.207 0h-.115v.569h.115v-.569zm1.18.379l-.233-.38h-.111v.569h.107v-.372l.229.372h.114v-.569h-.105v.38zm1.067-.061h.283v-.097h-.283v-.124h.305v-.097h-.42v.569h.432v-.097h-.316v-.154zm2.587-.094h-.224v-.224h-.114v.569h.114v-.249h.224v.249h.114v-.569h-.114v.224zm1.073.094h.284v-.097h-.284v-.124h.306v-.097h-.42v.569h.431v-.097h-.316v-.154zm1.455 0c.099-.016.149-.068.149-.158l.001-.017a.136.136 0 00-.056-.11.312.312 0 00-.144-.034l-.023.001h.001-.241v.569h.114v-.238h.031c.022 0 .044.005.063.013h-.001c.017.01.031.025.041.042l.124.181h.137l-.069-.111a.398.398 0 00-.125-.136l-.001-.001zm-.115-.079h-.085v-.143h.09l.024-.001c.033 0 .064.005.094.015l-.002-.001a.073.073 0 01.025.056v.002a.077.077 0 01-.03.057.31.31 0 01-.094.014l-.023-.001h.001zm1.213.079h.283v-.097h-.283v-.124h.306v-.097h-.421v.569h.432v-.097h-.317v-.154z"/></symbol><symbol id="icon-Client3" viewBox="0 0 60 32"><path fill="var(--color3, #afb1b8)" d="M25.367 23.394a.04.04 0 01.028.012l.073.077a.588.588 0 01-.206.145.727.727 0 01-.292.052h-.015a.71.71 0 01-.265-.051l.005.002a.598.598 0 01-.339-.346l-.001-.004a.764.764 0 01-.046-.263v-.01V22.998c0-.095.018-.185.052-.267l-.002.005a.628.628 0 01.361-.351.797.797 0 01.282-.049.713.713 0 01.263.044c.072.03.139.071.197.123l-.061.082a.054.054 0 01-.015.015.041.041 0 01-.022.007h-.003a.062.062 0 01-.027-.009l-.033-.022-.046-.028a.489.489 0 00-.141-.048h-.003a.62.62 0 00-.1-.009h-.016a.526.526 0 00-.199.038l.004-.001a.455.455 0 00-.262.267.619.619 0 00-.038.216.614.614 0 00.038.22c.022.06.057.116.101.163a.414.414 0 00.152.101c.06.024.124.036.188.035a.842.842 0 00.112-.007.42.42 0 00.241-.112.053.053 0 01.035-.014zm2.113-.386a.739.739 0 01-.049.271.624.624 0 01-.35.347l-.004.001a.799.799 0 01-.562-.002l.006.002a.617.617 0 01-.352-.347l-.001-.004a.764.764 0 01.002-.548l-.002.005a.623.623 0 01.139-.213.633.633 0 01.211-.132l.004-.001a.799.799 0 01.562.002l-.006-.002a.617.617 0 01.354.349.73.73 0 01.05.273zm-.192 0v-.011a.63.63 0 00-.036-.21l.001.004a.434.434 0 00-.25-.265L27 22.525a.571.571 0 00-.408.001l.004-.001a.429.429 0 00-.252.263l-.001.003a.706.706 0 000 .436.43.43 0 00.25.264l.003.001a.596.596 0 00.404 0 .415.415 0 00.253-.265.623.623 0 00.035-.218zm1.633.229l.02.049a2.405 2.405 0 01.046-.099l-.001.002.467-.809c.009-.014.017-.023.027-.025s.02-.004.032-.004H29.657v1.316h-.164v-1.008l-.001-.023.001-.024v.001l-.47.821a.074.074 0 01-.066.041h-.027a.078.078 0 01-.068-.04l-.484-.826v1.057h-.158v-1.314H28.365c.011 0 .022.002.032.005h-.001a.05.05 0 01.025.025l.477.81a.212.212 0 01.023.045l.001.002zm1.759-.065v.493h-.183v-1.314h.424c.075 0 .148.01.218.03l-.006-.001a.44.44 0 01.161.082.33.33 0 01.091.129.443.443 0 01-.003.336.367.367 0 01-.098.131h-.001a.445.445 0 01-.159.086l-.003.001a.714.714 0 01-.22.031l-.221-.004zm0-.142h.221a.456.456 0 00.142-.02.304.304 0 00.103-.057.228.228 0 00.062-.085l.001-.002a.27.27 0 00.022-.108v-.004-.013a.248.248 0 00-.019-.095l.001.002a.255.255 0 00-.064-.09.363.363 0 00-.218-.072l-.029.001h.001-.221v.542zm2.458.636h-.147a.071.071 0 01-.038-.012.089.089 0 01-.024-.03l-.124-.318h-.624l-.129.318a.066.066 0 01-.023.029.065.065 0 01-.039.013h-.146l.549-1.317h.19l.556 1.317zm-.905-.489h.516l-.218-.536a.939.939 0 01-.04-.117l-.001-.006-.021.069a.452.452 0 01-.022.06l.002-.004-.216.535zm1.695-.821a.081.081 0 01.028.024l.8.992V22.35h.164v1.317h-.093a.078.078 0 01-.035-.008h.001a.113.113 0 01-.029-.024l-.799-.991a.338.338 0 010 .045v.979h-.164v-1.317h.097c.011 0 .022.002.033.006zm2.34.786v.523h-.183v-.523l-.506-.793h.168c.013 0 .026.004.036.012.01.008.018.018.024.029v.001l.316.511a.765.765 0 01.056.116l.024-.057a.425.425 0 01.031-.06l.312-.515a.131.131 0 01.024-.028.057.057 0 01.036-.013h.169l-.507.796zm-7.437-3.002c.08.01.16.018.241.025 1.234-.526 2.278-1.387 3.001-2.475s1.094-2.355 1.066-3.643l-1.36-1.296c.09.427.142.918.142 1.421a7.17 7.17 0 01-.532 2.72l.017-.048a7.566 7.566 0 01-2.575 3.296z"/><path fill="var(--color3, #afb1b8)" d="M28.345 20.08l.037.007a7.332 7.332 0 002.719-3.394 6.831 6.831 0 00.473-2.52c0-.619-.081-1.22-.233-1.791l.011.049-1.937-1.845a8.455 8.455 0 01.962 3.944c0 .335-.019.666-.057.991l.004-.04a8.707 8.707 0 01-1.979 4.6zm6.569-4.512a6.689 6.689 0 01-2.279 3.639 7.265 7.265 0 01-1.047.722l-.036.019a6.479 6.479 0 002.525-1.362l-.008.006a6.096 6.096 0 001.615-2.235l.015-.04-.786-.748z"/><path fill="var(--color3, #afb1b8)" d="M34.606 15.36l-1.119-1.066a6.534 6.534 0 01-1.065 3.463l.015-.025a7.002 7.002 0 01-2.737 2.454h.006c.251 0 .501-.014.751-.043a6.916 6.916 0 002.699-1.887l.007-.008a6.403 6.403 0 001.436-2.847l.008-.043zm-6.099-5.554l-1.334-1.273c-1.193.439-2.219 1.211-2.943 2.215s-1.115 2.193-1.118 3.411c.005 1.347.48 2.652 1.351 3.712s2.089 1.812 3.46 2.139c1.224-1.42 1.94-3.176 2.046-5.011s-.407-3.654-1.461-5.193zm9.182 5.358c-.005-1.597-.673-3.128-1.858-4.257s-2.792-1.766-4.468-1.771a6.51 6.51 0 00-2.265.402l8.17 7.783a5.613 5.613 0 00.422-2.155v-.002z"/></symbol><symbol id="icon-Client4" viewBox="0 0 60 32"><path fill="var(--color3, #afb1b8)" d="M20.41 13.095h-.001c-.805 0-1.457.636-1.457 1.419v.001c0 .784.652 1.419 1.457 1.419h.001c.804 0 1.456-.636 1.456-1.419v-.001c0-.784-.652-1.419-1.456-1.419zm10.75-.454c-.003-1.089-.447-2.132-1.237-2.902a4.277 4.277 0 00-5.956-.001 4.063 4.063 0 00-1.237 2.903v6.004s8.43-.915 8.431-6.003v-.001zM16 20.616c.004.793.333 1.507.86 2.019l.001.001a2.975 2.975 0 004.144 0l-.001.001a2.823 2.823 0 00.861-2.018V16.44s-5.866.638-5.866 4.177zm2.933.748h-.001a.775.775 0 01-.428-.128l.003.002a.759.759 0 01-.281-.331l-.002-.005a.716.716 0 01-.042-.437l-.001.005a.742.742 0 01.21-.383.775.775 0 01.389-.204l.005-.001a.784.784 0 01.789.319.728.728 0 01.069.708l.002-.005a.75.75 0 01-.416.407.774.774 0 01-.294.057v-.003zm5.988-.464h-.6v.62h-.313v-1.516h.988v.253h-.675v.391h.6v.252zm1.502-.104c0 .149-.026.28-.079.393s-.128.199-.227.26a.615.615 0 01-.326.092h-.013.001a.598.598 0 01-.563-.345l-.002-.004a.882.882 0 01-.083-.375v-.013.001-.075c0-.149.027-.281.08-.394a.595.595 0 01.566-.353.62.62 0 01.336.092c.099.06.175.148.228.261a.902.902 0 01.081.393v.068zm-.317-.069c0-.159-.028-.28-.085-.363a.28.28 0 00-.232-.124h-.013.001-.012a.279.279 0 00-.23.122l-.001.001c-.057.081-.086.201-.086.358v.074c0 .155.028.275.085.361s.139.128.246.128h.012a.276.276 0 00.229-.122l.001-.001c.056-.083.085-.203.085-.361v-.074zm1.33.395v-.009a.158.158 0 00-.062-.126.815.815 0 00-.225-.1 1.586 1.586 0 01-.266-.108l.009.004c-.172-.093-.258-.218-.258-.376 0-.082.023-.155.069-.219s.113-.115.199-.151c.087-.036.184-.054.292-.054s.205.02.289.059a.436.436 0 01.268.41h-.313a.203.203 0 00-.065-.161.269.269 0 00-.185-.059.283.283 0 00-.178.049.152.152 0 00-.064.124v.004c0 .049.025.09.074.124s.123.065.22.094c.178.053.307.12.389.199s.122.178.122.295c0 .132-.05.235-.149.309s-.233.112-.401.112a.77.77 0 01-.319-.064.523.523 0 01-.219-.174l-.001-.002a.448.448 0 01-.075-.249v-.009h.314c0 .167.1.251.3.251a.29.29 0 00.174-.045.148.148 0 00.063-.121v-.006zm1.668-.866h-.465v1.263h-.313v-1.263h-.458v-.253h1.236v.253zm1.092.607h-.6v.406h.704v.251h-1.017v-1.516h1.015v.253h-.702v.361h.6v.245zm.849.102h-.249v.555h-.313v-1.516h.564c.179 0 .317.04.415.12s.146.193.146.338c0 .103-.022.19-.068.26a.455.455 0 01-.2.163l-.003.001.328.62v.015h-.335l-.284-.555zm-.249-.254h.252c.078 0 .139-.02.182-.059a.215.215 0 00.065-.154v-.012.001c0-.071-.021-.128-.061-.169s-.102-.061-.186-.061h-.251v.455zm1.893.274v.534h-.313v-1.516h.592c.114 0 .214.021.3.063a.469.469 0 01.27.44c0 .149-.051.266-.153.352s-.242.128-.422.128h-.274zm0-.253h.279c.083 0 .146-.02.188-.059a.21.21 0 00.066-.166v-.011a.252.252 0 00-.066-.17.247.247 0 00-.181-.071h-.286v.476zm1.977.131h-.6v.406h.704v.251h-1.017v-1.516h1.015v.253h-.702v.361h.6v.245zm1.451-.607h-.465v1.263h-.313v-1.263h-.458v-.253h1.236v.253zm1.091.607h-.6v.406h.704v.251h-1.017v-1.516h1.014v.253h-.702v.361h.6v.245zm.849.102h-.249v.555h-.312v-1.516h.564c.179 0 .317.04.415.12s.146.193.146.338c0 .103-.023.19-.068.26a.455.455 0 01-.2.163l-.003.001.328.62v.015h-.336l-.284-.555zm-.249-.254h.252a.26.26 0 00.182-.059.215.215 0 00.065-.154v-.012.001c0-.071-.021-.128-.062-.169s-.102-.061-.186-.061h-.251v.455zm1.836.411v-.009a.158.158 0 00-.062-.126.815.815 0 00-.225-.1 1.633 1.633 0 01-.267-.108l.009.004c-.172-.093-.258-.218-.258-.376 0-.082.023-.155.069-.219s.113-.115.199-.151a.756.756 0 01.292-.054h.012c.1 0 .196.022.281.061l-.004-.002a.436.436 0 01.268.41h-.313a.203.203 0 00-.065-.161.269.269 0 00-.185-.059.283.283 0 00-.178.049.15.15 0 00-.063.123v.005c0 .049.025.09.074.124s.123.065.22.094c.178.053.307.12.389.199s.122.178.122.295c0 .132-.049.235-.149.309s-.233.112-.401.112h-.01a.757.757 0 01-.313-.066l.005.002a.517.517 0 01-.219-.174l-.001-.002a.446.446 0 01-.075-.249v-.009h.314c0 .167.1.251.3.251a.293.293 0 00.174-.045.147.147 0 00.062-.121v-.007z"/></symbol><symbol id="icon-Client5" viewBox="0 0 60 32"><path fill="var(--color3, #afb1b8)" d="M21.507 21.788a.557.557 0 01.123.359l.001.027a.57.57 0 01-.191.426h-.001a.825.825 0 01-.554.166h-.974v-2.277h.954a.805.805 0 01.531.153l-.002-.002a.52.52 0 01.186.398l-.001.029v-.001a.528.528 0 01-.111.348.52.52 0 01-.291.178.55.55 0 01.329.195zm-1.143-.344h.408a.383.383 0 00.259-.076.272.272 0 00.088-.2l-.001-.024v.001l.001-.02a.278.278 0 00-.087-.203.388.388 0 00-.235-.078l-.034.001h.001-.401v.597zm.707.873a.28.28 0 00.097-.213l-.001-.019v-.016a.285.285 0 00-.099-.217.415.415 0 00-.251-.083l-.028.001h.001-.427v.626h.433a.428.428 0 00.274-.079zm2.386.45l-.53-.89h-.199v.89h-.457V20.49h.864l.059-.002c.207 0 .397.074.544.197l-.001-.001a.727.727 0 01.062.944l.001-.002a.699.699 0 01-.412.231l.565.91h-.497zm-.73-1.201h.373c.26 0 .389-.115.389-.345l.001-.019a.343.343 0 00-.096-.237.405.405 0 00-.259-.094l-.037.002h.002-.378l.005.693zm3.225.742h-.91l-.161.459h-.479l.836-2.252h.517l.832 2.252h-.479l-.157-.458zm-.122-.345l-.332-.961-.332.961h.665zm3.246.804h-.454l-1.016-1.548v1.548h-.452V20.49h.452l1.016 1.557V20.49h.453v2.277zm2.586-.546a.985.985 0 01-.405.399l-.005.003c-.197.1-.416.149-.637.143h-.807v-2.277H30.65c.219 0 .427.052.61.144l-.008-.004a.963.963 0 01.41.397 1.327 1.327 0 01-.003 1.202l.003-.008zm-.519-.054a.834.834 0 00-.001-1.088l.001.001a.783.783 0 00-.569-.193h.002-.315v1.474h.315a.781.781 0 00.568-.194l-.001.001zM26.236 7.822s5.849 2.217 5.725 5.426v5.427s-5.845-2.219-5.723-5.427l-.002-5.426zm10.936 9.582a7.908 7.908 0 013.681-1.372l.035-.003V14.33a7.684 7.684 0 00-3.698 3.043l-.019.031z"/><path fill="var(--color3, #afb1b8)" d="M36.509 17.916a8.009 8.009 0 014.325-3.924l.055-.018V9.079s-8.331 3.158-8.154 7.727v7.727s.371-.141.955-.406c0-.247 0-.496.027-.747a8.04 8.04 0 012.781-5.456l.011-.009z"/><path fill="var(--color3, #afb1b8)" d="M35.717 20.787a8.016 8.016 0 01.291-1.582 7.446 7.446 0 00-1.764 4.659v.008a22.72 22.72 0 001.716-.909l-.114.062a7.775 7.775 0 01-.157-1.577c0-.232.01-.462.029-.69l-.002.03zm.331.027a7.74 7.74 0 00.11 2.074l-.008-.048c2.276-1.367 4.833-3.48 4.735-6.033v-.222a7.452 7.452 0 00-4.333 2.034l.002-.002a7.448 7.448 0 00-.506 2.171l-.002.027z"/></symbol><symbol id="icon-Client6" viewBox="0 0 60 32"><path fill="var(--color3, #afb1b8)" d="M30.485 15.414a1.152 1.152 0 01-.202-.735v.003-1.061c0-.325.067-.572.202-.741s.366-.253.693-.252c.308 0 .526.072.655.216a.93.93 0 01.193.634v.249h-.55v-.252-.033c0-.076-.006-.15-.017-.222l.001.008a.246.246 0 00-.078-.147.297.297 0 00-.176-.058l-.024.001h.001l-.023-.001a.316.316 0 00-.188.062l.001-.001a.287.287 0 00-.091.16v.002a1.35 1.35 0 00-.022.262v1.287a.706.706 0 00.07.361.266.266 0 00.109.087l.002.001a.276.276 0 00.143.021h-.001a.277.277 0 00.196-.059h-.001a.264.264 0 00.082-.155v-.001c.013-.085.019-.172.017-.258v-.261h.55v.238l.002.066c0 .226-.072.434-.194.604l.002-.003c-.126.158-.342.236-.659.236s-.556-.084-.692-.259zm2.292.011c-.139-.165-.209-.406-.209-.724v-1.116c0-.315.07-.553.209-.715s.371-.242.697-.242c.324 0 .555.081.694.242s.21.4.21.715v1.116c0 .315-.071.556-.212.723s-.371.249-.692.249c-.32 0-.557-.084-.697-.248zm.954-.267a.663.663 0 00.066-.33v-1.366l.001-.037a.649.649 0 00-.068-.291l.002.004a.253.253 0 00-.111-.088l-.002-.001a.269.269 0 00-.146-.018h.001c-.011-.002-.024-.002-.037-.002a.288.288 0 00-.11.022l.002-.001a.272.272 0 00-.112.088l-.001.001a.639.639 0 00-.066.324v1.372a.661.661 0 00.066.33c.032.034.07.062.114.081l.002.001a.36.36 0 00.286-.001l-.002.001a.344.344 0 00.116-.082v-.006zm1.309-2.497h.593l.446 2.059.456-2.059h.577l.058 2.971h-.426l-.045-2.065-.44 2.065h-.342l-.456-2.072-.042 2.072h-.431l.053-2.971zm2.793 0h.923c.532 0 .797.281.797.844 0 .539-.28.807-.84.807h-.314v1.32h-.57l.004-2.971zm.789 1.27a.41.41 0 00.313-.094.518.518 0 00.082-.335l.001-.033c0-.084-.01-.165-.029-.243l.001.007a.228.228 0 00-.042-.082.251.251 0 00-.071-.059l-.001-.001a.544.544 0 00-.224-.048l-.032.001h.001-.221v.887h.221zm1.753-1.27h.612l.628 2.971h-.531l-.124-.685h-.546l-.128.685h-.539l.628-2.971zm.523 1.942l-.213-1.247-.213 1.247h.426zm1.224-1.942h.399l.763 1.695v-1.695h.473v2.971h-.379l-.768-1.769v1.769h-.489l.001-2.971zm2.743 1.839l-.635-1.834h.535l.387 1.178.364-1.178h.523l-.627 1.834v1.133h-.547V14.5zm-13.5 2.431v.155H30.9v1.207h-.195v-1.207h-.467v-.155h1.127zm1.458 1.363h-.154a.062.062 0 01-.038-.013.07.07 0 01-.025-.031l-.134-.324h-.645l-.134.324a.085.085 0 01-.021.037.065.065 0 01-.039.013h-.154l.57-1.362h.198l.577 1.357zm-.944-.506h.538l-.228-.555a.898.898 0 01-.041-.121l-.002-.007-.021.072-.021.057-.226.554zm1.926.372a.955.955 0 00.107 0 .665.665 0 00.178-.042l-.004.002.076-.033v-.306h-.231a.04.04 0 01-.028-.011.03.03 0 01-.011-.024v-.106h.442v.522a.81.81 0 01-.234.109l-.006.001a.84.84 0 01-.138.028h-.005a1.638 1.638 0 01-.164.009h-.008a.798.798 0 01-.286-.053l.005.002a.664.664 0 01-.374-.355l-.002-.004a.73.73 0 01-.052-.273v-.01-.009c0-.099.019-.194.053-.281l-.002.005a.633.633 0 01.375-.358.88.88 0 01.305-.051c.053 0 .106.004.159.012a.687.687 0 01.349.16l-.055.084a.052.052 0 01-.018.018.053.053 0 01-.026.007.06.06 0 01-.035-.011.618.618 0 01-.059-.034l.003.002a.496.496 0 00-.073-.036l-.003-.001a.525.525 0 00-.101-.029l-.004-.001a.735.735 0 00-.137-.012h-.015a.623.623 0 00-.217.039l.004-.001a.477.477 0 00-.167.108.473.473 0 00-.106.17.688.688 0 00.002.459l-.002-.005a.493.493 0 00.28.28.595.595 0 00.226.027zm1.816-.022h.622v.155h-.812V16.93h.195l-.005 1.207zm1.27.155h-.195v-1.362h.195v1.363zm.725-1.355a.088.088 0 01.029.025l.833 1.027-.001-.024.001-.026v.001-1.015h.17v1.368H38.543a.086.086 0 01-.036-.008h.001a.108.108 0 01-.03-.026l-.832-1.026v1.059h-.163v-1.362h.101c.011 0 .022.002.032.006zm2.467-.007v.15h-.691v.45h.56v.144h-.56v.465h.691v.15h-.891v-1.359h.891zm-20.42-8.414l8.652 2.326v8.15l-8.652-2.324V8.518zm-.554-.695v9.242l9.761 2.625v-9.241l-9.761-2.625z"/><path fill="var(--color3, #afb1b8)" d="M24.34 23.979l-9.762-2.627v-9.241l9.762 2.626v9.242z"/><path fill="var(--color3, #afb1b8)" d="M19.27 8.412l8.54 2.297-3.632 3.439-8.54-2.298 3.633-3.438zm-.161-.59l-4.531 4.289 9.762 2.626 4.529-4.289-9.761-2.626zm5.78 15.637l3.98-3.769-3.98-1.071v4.84z"/></symbol><symbol id="icon-clock1" viewBox="0 0 32 32"><path fill="var(--color1, #212121)" d="M31.296 15.301C31.295 6.849 24.441-.002 15.988 0S.685 6.855.687 15.308c.002 6.788 4.422 12.543 10.541 14.545l.108.031a.667.667 0 00.529-.065.636.636 0 00.283-.357l3.865-12.25a1.913 1.913 0 10-.852-3.63l.011-.005-5.106-5.107a.638.638 0 00-.902.902l5.103 5.109a1.847 1.847 0 00-.191.826c0 .602.283 1.137.723 1.48l.004.003-3.682 11.673C3.843 25.782.117 17.709 2.797 10.431S13.551-.573 20.829 2.108c7.278 2.681 11.004 10.754 8.323 18.032-1.345 3.581-4.003 6.406-7.374 7.938l-.088.036-.398-1.874a.639.639 0 00-1.05-.343l.001-.001-3.837 3.426a.637.637 0 00.227 1.083l.005.001 4.899 1.563a.637.637 0 00.818-.744l.001.004-.391-1.839c5.528-2.374 9.329-7.772 9.329-14.057v-.034.002zm-15.304-.637a.638.638 0 010 1.276.638.638 0 010-1.276zm2.1 14.864l2.184-1.948.603 2.84-2.787-.892z"/><path fill="var(--color2, #2196f3)" d="M15.354 3.185V4.46a.638.638 0 001.276 0V3.185a.638.638 0 10-1.276 0zM3.876 14.664a.638.638 0 000 1.276h1.275a.638.638 0 000-1.276H3.876zm24.232 1.275a.638.638 0 000-1.276h-1.275a.638.638 0 000 1.276h1.275z"/></symbol><symbol id="icon-company" viewBox="0 0 25 32"><path fill="var(--color3, #afb1b8)" d="M10.447 1.806h.084c.156 0 .324.015.49.03a13.96 13.96 0 012.18.329V.403a12.432 12.432 0 00-2.207-.357l-.042-.002c-.254-.02-.571-.035-.889-.043H9.779c-1.523.006-3.04.201-4.515.582a18.28 18.28 0 00-4.79 1.948v17.475a18.922 18.922 0 014.431-1.75l.135-.029a19.11 19.11 0 013.78-.586l.052-.002h.052c.216-.011.433-.017.655-.018V15.83c-1.78.024-3.493.264-5.129.695l.147-.033c-.603.157-1.185.326-1.731.513l-.623.212V3.591l.266-.128c1.89-.918 4.096-1.513 6.424-1.649l.047-.002.028-.001.029.001h-.001c.248-.012.497-.018.742-.018h.28c.129.003.258.006.388.014z"/><path fill="var(--color3, #afb1b8)" d="M14.837 3.651h-.016c-.915 0-1.811-.077-2.684-.225l.094.013c-.277-.047-.55-.103-.814-.164V20.55c1.12.277 2.271.412 3.425.404a18.446 18.446 0 004.644-.61l-.128.029a18.299 18.299 0 004.877-1.995l-.085.047V1.262a19.021 19.021 0 01-4.429 1.751l-.136.03a19.345 19.345 0 01-4.746.609zm6.908.299l.623-.209v13.63l-.266.129c-.903.442-1.962.834-3.065 1.118l-.119.026c-1.331.345-2.7.521-4.074.527-.411 0-.818-.017-1.214-.052l-.426-.038V5.064l.497.033c.361.023.735.034 1.141.034a21.098 21.098 0 005.173-.663 28.128 28.128 0 001.731-.518zM1.684 25.977a.916.916 0 00-.661-.281l-.033.001h.002-.014c-.139 0-.272.028-.393.078l.007-.003a.904.904 0 00-.51.512l-.002.006a1.002 1.002 0 00-.072.386v2.335c-.006.164.026.328.092.479a.83.83 0 00.554.479c.114.031.231.048.349.048a.985.985 0 00.968-.982v-.261h-.61v.221a.53.53 0 01-.038.199l.001-.004a.38.38 0 01-.089.132.426.426 0 01-.255.089.308.308 0 01-.286-.125l-.001-.001a.548.548 0 01-.082-.289l.001-.024v.001-2.177a.74.74 0 01.075-.349.31.31 0 01.262-.143l.038.002H.986h.012c.107 0 .201.052.26.131l.001.001a.494.494 0 01.102.301v.013-.001.202h.604v-.238-.011c0-.143-.027-.28-.077-.405l.003.007a.955.955 0 00-.205-.329zm3.626-.026a1.051 1.051 0 00-1.058-.191.965.965 0 00-.557.511l-.002.006a1.08 1.08 0 00-.089.452v2.239c-.004.158.026.314.089.458a.888.888 0 00.236.313.964.964 0 00.322.197 1.049 1.049 0 001.059-.198l-.001.001a.948.948 0 00.23-.313c.063-.144.093-.301.089-.458v-2.239-.02c0-.156-.033-.305-.092-.439l.003.007a1.016 1.016 0 00-.23-.327zm-.285 3.018l.002.035a.398.398 0 01-.123.289.446.446 0 01-.575 0l.001.001a.398.398 0 01-.121-.326v.002-2.239l-.001-.034a.4.4 0 01.123-.289.446.446 0 01.575 0l-.001-.001a.398.398 0 01.121.326v-.002 2.24zm5.047 1v-4.24h-.586l-.771 2.244h-.01l-.777-2.244h-.58v4.239h.606V27.39h.011l.593 1.823h.302l.598-1.823h.01v2.578h.606zm3.441-3.942a.837.837 0 00-.343-.232 1.31 1.31 0 00-.416-.066h-.024.001-.9v4.24h.604v-1.656h.311c.189.009.376-.031.545-.116a.894.894 0 00.329-.32l.002-.004a1.02 1.02 0 00.139-.369c.021-.133.033-.287.033-.444v-.04.002a2.426 2.426 0 00-.059-.606.906.906 0 00-.223-.39zm-.312 1.292a.538.538 0 01-.057.224l.001-.003a.342.342 0 01-.154.147l-.002.001a.617.617 0 01-.254.054l-.033-.001h.002-.276V26.3h.311l.029-.001c.088 0 .172.02.247.055l-.004-.002a.35.35 0 01.141.154l.001.002a.62.62 0 01.053.236v.282c0 .098.006.201 0 .291H13.2zm3.173-1.59h-.495l-.934 4.24h.604l.177-.911h.823l.178.911h.604l-.958-4.24zm-.557 2.752l.297-1.537h.011l.295 1.537h-.604zm4.46-.198h-.011l-.913-2.554h-.58v4.24h.604v-2.55h.012l.923 2.549h.569v-4.239h-.604v2.554zm3.691-2.554l-.486 1.686h-.012l-.486-1.686h-.639l.83 2.448v1.791h.604v-1.791l.83-2.447h-.64zM0 31.166h.291v.817h.198v-.817h.289v-.167H0v.168zm2.447-.168l-.382.985h.21l.081-.224h.392l.084.224h.215l-.391-.985h-.21zm-.03.595l.134-.365.134.365h-.268zm2.449.027h.228v.127a.378.378 0 01-.234.083h-.014a.25.25 0 01-.195-.094.406.406 0 01-.073-.234l.001-.023v.001c0-.219.095-.329.283-.329l.021-.001c.097 0 .178.067.201.157v.001l.194-.038c-.042-.192-.18-.289-.417-.289h-.013a.492.492 0 00-.331.127.48.48 0 00-.141.38v-.002.023c0 .132.048.254.127.347l-.001-.001c.087.09.209.146.343.146L4.877 32h-.001.016c.155 0 .296-.06.402-.157v-.388h-.426v.166zm2.471-.622h-.199v.985h.689v-.167h-.49v-.817zm2.089 0h-.199v.985h.199v-.985zm2.042.657l-.403-.657h-.193v.985h.185v-.643l.396.643h.198v-.985h-.182v.658zm1.847-.106h.49v-.167h-.49v-.215h.527v-.168h-.727v.985h.747v-.167h-.548v-.266zm4.477-.163h-.388v-.388h-.198v.984h.198v-.431h.388v.431h.198v-.985h-.197v.388zm1.857.163h.492v-.167h-.492v-.215h.529v-.168h-.726v.985h.746v-.167h-.548v-.266zm2.519.001c.171-.027.258-.118.258-.274a.23.23 0 00-.096-.219h-.001a.555.555 0 00-.25-.059l-.04.001h.002-.417v.984h.198v-.412h.055c.039 0 .076.008.109.023l-.002-.001a.201.201 0 01.07.072l.215.313h.236l-.12-.192a.704.704 0 00-.215-.235l-.002-.002zm-.199-.137h-.146v-.247h.156a.515.515 0 01.205.024l-.004-.001a.13.13 0 01-.009.2.537.537 0 01-.164.025l-.039-.001h.002zm2.099.136h.49v-.167h-.49v-.215h.529v-.168h-.728v.985h.747v-.167h-.548v-.266z"/></symbol><symbol id="icon-company2" viewBox="0 0 31 32"><path fill="var(--color3, #afb1b8)" d="M4.722 31.103c.023.001.044.01.06.025l.153.161c-.119.13-.266.234-.431.304a1.533 1.533 0 01-.61.109h-.031c-.196 0-.383-.038-.554-.106l.01.004a1.25 1.25 0 01-.709-.725l-.003-.009a1.575 1.575 0 01-.098-.552v-.02-.02a1.5 1.5 0 01.109-.562l-.004.01a1.32 1.32 0 01.756-.734c.189-.07.39-.104.592-.102.188-.004.375.027.549.093.152.063.291.149.412.257l-.128.171a.134.134 0 01-.032.031.077.077 0 01-.045.014h-.006a.107.107 0 01-.056-.019l-.068-.045-.096-.059a1.024 1.024 0 00-.296-.101l-.006-.001a1.233 1.233 0 00-.209-.018h-.02.001-.016c-.147 0-.288.028-.417.079l.008-.003a.964.964 0 00-.333.216 1.002 1.002 0 00-.216.342 1.248 1.248 0 00-.079.452c-.002.156.025.313.078.46.047.126.119.242.213.341a.863.863 0 00.318.212c.125.049.259.074.394.073.078.001.156-.004.234-.015a.879.879 0 00.354-.122c.054-.034.104-.071.152-.113a.115.115 0 01.072-.03zm4.422-.807c.002.194-.033.387-.103.568a1.246 1.246 0 01-.288.44 1.314 1.314 0 01-.444.286l-.009.003a1.695 1.695 0 01-1.176-.004l.012.004a1.331 1.331 0 01-.45-.29 1.3 1.3 0 01-.288-.436l-.003-.009a1.614 1.614 0 01.004-1.147l-.004.011a1.34 1.34 0 01.29-.447 1.32 1.32 0 01.441-.276l.009-.003A1.674 1.674 0 018.311 29l-.012-.004a1.29 1.29 0 01.741.729c.071.182.106.376.104.571zm-.402 0v-.024c0-.155-.027-.303-.076-.441l.003.009a.907.907 0 00-.522-.554l-.006-.002a1.219 1.219 0 00-.855.003l.009-.003a.903.903 0 00-.528.55l-.002.006a1.465 1.465 0 000 .912.899.899 0 00.524.552l.006.002c.273.097.573.097.846 0a.903.903 0 00.324-.214.972.972 0 00.205-.341 1.29 1.29 0 00.073-.456zm3.418.478l.041.102c.015-.036.028-.069.044-.102.017-.04.034-.073.052-.105l-.003.005.978-1.694c.019-.03.036-.048.056-.053s.043-.009.066-.009h.015-.001.289v2.755h-.342v-2.11l-.001-.048.002-.05v.002l-.984 1.718a.149.149 0 01-.057.062h-.001a.16.16 0 01-.082.022h-.057c-.03.001-.06-.007-.084-.022s-.045-.036-.058-.062v-.001l-1.012-1.73v2.212h-.331v-2.75h.303a.22.22 0 01.068.01h-.002a.107.107 0 01.053.052v.001l.999 1.696c.018.028.035.06.048.094l.001.004zm3.681-.136v1.031h-.383v-2.75h.854c.161-.003.322.017.476.06a.927.927 0 01.337.171c.085.074.15.167.191.27a.925.925 0 01.066.352.84.84 0 01-.071.352.752.752 0 01-.205.274l-.001.001a.953.953 0 01-.333.181l-.007.002a1.498 1.498 0 01-.461.064l-.463-.007zm0-.296h.464c.1.002.201-.013.296-.042a.627.627 0 00.215-.12l-.001.001c.056-.049.1-.11.129-.178l.001-.003a.565.565 0 00.046-.225v-.008l.001-.028a.506.506 0 00-.041-.199l.001.003a.544.544 0 00-.133-.188.763.763 0 00-.517-.148h.003-.464v1.134zm5.146 1.331h-.308a.134.134 0 01-.079-.026.168.168 0 01-.049-.063v-.001l-.26-.665h-1.307l-.27.665a.152.152 0 01-.047.061.135.135 0 01-.082.028h-.307l1.148-2.756h.398l1.164 2.756zm-1.895-1.023h1.079l-.455-1.122a1.845 1.845 0 01-.083-.245l-.003-.013-.044.144a1.282 1.282 0 01-.045.126l.003-.009-.452 1.119zm3.548-1.72c.023.013.043.03.058.05l1.674 2.076v-2.139h.342v2.756h-.196a.164.164 0 01-.074-.017h.001a.233.233 0 01-.061-.051L22.71 29.53a.753.753 0 010 .095v2.049h-.342v-2.756h.203c.024 0 .047.004.068.013zm4.897 1.647v1.094h-.383v-1.094l-1.058-1.66H26.445c.028 0 .054.009.075.024a.251.251 0 01.052.061l.001.001.662 1.07c.045.07.085.151.114.236l.002.008.05-.118a.89.89 0 01.066-.126l.653-1.078a.284.284 0 01.05-.059.117.117 0 01.076-.027h.352l-1.06 1.667zm-15.566-6.284c.167.02.335.037.506.051 2.582-1.101 4.767-2.902 6.281-5.18s2.29-4.93 2.231-7.625l-2.846-2.712c.189.894.297 1.921.297 2.974 0 2.015-.396 3.937-1.115 5.694l.036-.1c-1.09 2.731-2.957 5.12-5.39 6.899z"/><path fill="var(--color3, #afb1b8)" d="M10.954 24.167l.077.015c2.601-1.773 4.583-4.247 5.692-7.104.627-1.564.991-3.378.991-5.276 0-1.296-.17-2.553-.488-3.748l.023.101-4.054-3.862c1.269 2.397 2.015 5.239 2.015 8.255 0 .701-.04 1.393-.119 2.074l.008-.083c-.397 3.519-1.834 6.857-4.144 9.628zm13.75-9.443c-.688 2.962-2.361 5.632-4.77 7.616a14.98 14.98 0 01-2.191 1.51l-.075.039a13.579 13.579 0 005.285-2.851l-.016.013a12.774 12.774 0 003.381-4.679l.031-.084-1.645-1.565z"/><path fill="var(--color3, #afb1b8)" d="M24.06 14.288l-2.341-2.23a13.684 13.684 0 01-2.23 7.249l.032-.053c-1.394 2.169-3.373 3.943-5.729 5.137h.012c.525 0 1.049-.03 1.571-.089a14.47 14.47 0 005.65-3.95l.014-.017a13.397 13.397 0 003.005-5.958l.016-.089zM11.294 2.664L8.501 0c-2.497.919-4.644 2.535-6.16 4.636S.008 9.225.001 11.775c.01 2.818 1.005 5.552 2.829 7.77s4.372 3.793 7.242 4.476c2.562-2.973 4.061-6.647 4.281-10.488s-.851-7.648-3.059-10.87zm19.218 11.214c-.01-3.343-1.409-6.547-3.89-8.91s-5.843-3.696-9.352-3.706a13.67 13.67 0 00-4.741.841l17.099 16.29c.559-1.335.884-2.886.884-4.513v-.001z"/></symbol><symbol id="icon-companytagline" viewBox="0 0 62 32"><path fill="var(--color3, #afb1b8)" d="M31.123 14.854a2.248 2.248 0 01-.396-1.437v.007-2.074c0-.637.131-1.12.394-1.45s.715-.495 1.356-.494c.602 0 1.03.141 1.282.422.275.359.41.798.378 1.241v.487h-1.076v-.494l.001-.064c0-.148-.012-.293-.034-.435l.002.016a.482.482 0 00-.153-.287.575.575 0 00-.345-.113l-.048.002h.002a.616.616 0 00-.412.119l.002-.001a.568.568 0 00-.178.313l-.001.004a2.594 2.594 0 00-.042.513v2.518c-.017.243.031.486.138.707a.526.526 0 00.212.171l.003.001a.544.544 0 00.28.04h-.003a.545.545 0 00.382-.115l-.001.001a.522.522 0 00.16-.303v-.003c.026-.167.037-.336.034-.504v-.511h1.076v.466a2.018 2.018 0 01-.376 1.311l.004-.006c-.247.308-.669.462-1.288.462s-1.088-.164-1.354-.506zm4.485.022c-.272-.323-.408-.794-.408-1.416v-2.183c0-.616.136-1.082.408-1.399s.726-.474 1.364-.473c.633 0 1.085.158 1.358.473.271.317.41.783.41 1.399v2.183c0 .616-.139 1.089-.415 1.414s-.726.487-1.353.487c-.626 0-1.09-.164-1.364-.485zm1.865-.524c.097-.202.142-.424.129-.646v-2.672l.002-.072a1.28 1.28 0 00-.133-.569l.003.007a.528.528 0 00-.216-.173l-.003-.001a.533.533 0 00-.287-.037h.003a.546.546 0 00-.289.039l.004-.001a.53.53 0 00-.22.172l-.001.001a1.263 1.263 0 00-.129.633v2.685a1.29 1.29 0 00.129.646.676.676 0 00.223.158l.004.002a.692.692 0 00.558-.002l-.005.002a.672.672 0 00.226-.16v-.013zm2.562-4.884h1.16l.872 4.028.892-4.028h1.128l.113 5.813h-.833l-.089-4.04-.861 4.04h-.669l-.892-4.054-.083 4.054h-.843l.104-5.812zm5.465 0h1.806c1.04 0 1.56.55 1.56 1.651 0 1.054-.547 1.58-1.643 1.579h-.614v2.583h-1.115l.007-5.812zm1.543 2.484c.11.014.222.004.327-.028a.78.78 0 00.286-.155 1.01 1.01 0 00.16-.657l.001-.067c0-.163-.02-.322-.057-.474l.003.014a.425.425 0 00-.083-.161l.001.001a.484.484 0 00-.139-.116l-.002-.001a1.055 1.055 0 00-.499-.092h.003-.433v1.736h.433zm3.431-2.484h1.197l1.229 5.813h-1.039l-.243-1.341H50.55l-.25 1.341h-1.054l1.229-5.812zm1.023 3.799l-.417-2.44-.417 2.44h.834zm2.394-3.799h.781l1.494 3.316V9.468h.925v5.812h-.742l-1.503-3.462v3.462h-.957l.002-5.812zm5.367 3.596l-1.242-3.588h1.046l.758 2.305.711-2.305h1.023l-1.226 3.588v2.216h-1.07v-2.216zm-26.413 4.758v.304h-.91v2.362h-.381v-2.362h-.914v-.304h2.205zm2.852 2.666h-.302a.124.124 0 01-.075-.026.134.134 0 01-.048-.06v-.001l-.263-.633h-1.262l-.264.633a.181.181 0 01-.04.072.124.124 0 01-.076.025h-.301l1.115-2.666h.387l1.128 2.655zm-1.847-.99h1.053l-.446-1.085a1.908 1.908 0 01-.08-.236l-.003-.014-.042.141-.04.111-.442 1.083zm3.769.728c.07.003.139.003.209 0 .061-.006.12-.017.179-.032.064-.015.117-.032.169-.052l-.009.003c.049-.019.098-.042.15-.065v-.6h-.451a.082.082 0 01-.055-.021.059.059 0 01-.022-.047v-.207h.865v1.022a1.598 1.598 0 01-.459.214l-.012.003a1.76 1.76 0 01-.27.055l-.009.001a2.896 2.896 0 01-.321.017h-.017c-.197 0-.386-.037-.56-.103l.011.004a1.355 1.355 0 01-.446-.279l.001.001a1.293 1.293 0 01-.285-.414l-.003-.008a1.415 1.415 0 01-.102-.534v-.02-.018c0-.194.037-.379.104-.549l-.004.01c.064-.158.162-.301.287-.422.127-.12.279-.214.446-.277a1.71 1.71 0 01.598-.099c.104 0 .207.007.31.023a1.4 1.4 0 01.487.173c.069.042.134.088.195.139l-.108.165a.103.103 0 01-.036.036.098.098 0 01-.051.014.134.134 0 01-.069-.021h.001a1.153 1.153 0 01-.114-.066l.005.003a.905.905 0 00-.143-.07l-.007-.002a1.21 1.21 0 00-.197-.058l-.008-.001a1.495 1.495 0 00-.268-.023h-.016.001-.013c-.15 0-.293.027-.425.077l.008-.003a.94.94 0 00-.328.211.924.924 0 00-.207.332 1.338 1.338 0 00.003.898l-.003-.009c.049.125.125.24.223.335a.935.935 0 00.326.211c.142.046.292.064.442.053zm3.553-.042h1.217v.304h-1.59v-2.666h.381l-.009 2.362zm2.484.303h-.381v-2.664h.381v2.666zm1.418-2.653a.21.21 0 01.058.049l1.63 2.01-.002-.048.002-.05v.002-1.986h.333v2.676h-.192l-.013.001a.171.171 0 01-.071-.016h.001a.266.266 0 01-.06-.05l-1.628-2.007v2.072h-.319v-2.665h.198c.022 0 .043.004.063.013zm4.827-.012v.294H48.55v.88h1.095v.282H48.55v.91h1.351v.294h-1.743v-2.659h1.743zM9.95 1.359l16.929 4.55v15.946L9.952 17.308V1.359zM8.865 0v18.081l19.098 5.135V5.136L8.865-.001z"/><path fill="var(--color3, #afb1b8)" d="M19.1 31.61L0 26.471V8.391l19.1 5.137V31.61z"/><path fill="var(--color3, #afb1b8)" d="M9.181 1.155l16.707 4.493-7.105 6.728-16.71-4.495L9.18 1.154zM8.865 0L0 8.392l19.1 5.137 8.863-8.392L8.865 0zm11.31 30.593l7.787-7.374-7.787-2.096v9.47z"/></symbol><symbol id="icon-envelopehover" viewBox="0 0 43 32"><path fill="var(--color2, #2196f3)" d="M38.667 0H4C1.794 0 0 1.675 0 3.734v22.404c0 2.059 1.794 3.734 4 3.734h34.667c2.206 0 4-1.675 4-3.734V3.734c0-2.059-1.794-3.734-4-3.734zm0 2.489c.181 0 .353.035.511.096L21.334 17.022 3.49 2.585c.158-.061.33-.096.511-.096h34.667zm0 24.894H4c-.736 0-1.333-.558-1.333-1.245V5.216L20.46 19.611c.251.203.563.304.874.304s.622-.101.874-.304L40.001 5.216v20.922c0 .687-.598 1.245-1.333 1.245z"/></symbol><symbol id="icon-envelope" viewBox="0 0 43 32"><path fill="var(--color4, #757575)" d="M38.667 0H4C1.795 0 0 1.675 0 3.733v22.405c0 2.059 1.795 3.733 4 3.733h34.667c2.205 0 4-1.675 4-3.733V3.733c0-2.059-1.795-3.733-4-3.733zm0 2.488c.181 0 .355.037.512.099L21.334 17.024 3.489 2.587c.152-.062.327-.098.512-.099h34.667zm0 24.893H4c-.736 0-1.333-.557-1.333-1.243V5.215L20.459 19.61c.235.189.537.304.866.304h.017c.329 0 .631-.115.869-.306l-.003.002L40 5.215v20.923c0 .685-.597 1.243-1.333 1.243z"/></symbol><symbol id="icon-facebook1" viewBox="0 0 32 32"><path fill="var(--color3, #afb1b8)" d="M21.328 5.312h2.923V.224A36.478 36.478 0 0020.144 0h-.157.008c-4.213 0-7.099 2.65-7.099 7.52V12H8.25v5.688h4.646V32h5.698V17.69h4.461l.707-5.688h-5.168V8.08c0-1.643.443-2.768 2.734-2.768z"/></symbol><symbol id="icon-fosterpeters" viewBox="0 0 60 32"><path fill="var(--color3, #afb1b8)" d="M9.229 9.548h-.002c-1.684 0-3.049 1.331-3.049 2.971v.002c0 1.64 1.365 2.971 3.048 2.971h.002c1.684 0 3.049-1.331 3.049-2.971v-.002c0-1.64-1.365-2.97-3.049-2.97zm22.501-.949a8.508 8.508 0 00-2.59-6.075A8.954 8.954 0 0022.909 0c-2.339.004-4.581.912-6.236 2.523s-2.585 3.797-2.59 6.076v12.566S31.728 19.25 31.73 8.601v-.002zM0 25.289a5.909 5.909 0 001.801 4.226l.002.001a6.223 6.223 0 004.336 1.758 6.215 6.215 0 004.337-1.759l-.002.002a5.906 5.906 0 001.804-4.224v-8.746S0 17.882 0 25.29zm6.14 1.566h-.002c-.331 0-.639-.098-.897-.267l.006.004a1.579 1.579 0 01-.589-.693l-.004-.01a1.506 1.506 0 01-.089-.915l-.002.01c.062-.304.215-.583.439-.802.22-.213.5-.365.814-.427l.01-.002c.312-.061.635-.03.929.089s.545.319.722.577a1.546 1.546 0 01.146 1.481l.004-.01c-.08.191-.199.365-.348.511s-.327.262-.522.341a1.61 1.61 0 01-.616.12H6.14v-.006zm12.532-.971h-1.256v1.297h-.655v-3.173h2.067v.53h-1.412v.819h1.255v.528zm3.143-.218c0 .313-.055.586-.166.822a1.248 1.248 0 01-1.157.737h-.026.001c-.263 0-.498-.063-.704-.19a1.269 1.269 0 01-.476-.533l-.003-.008c-.109-.23-.173-.5-.173-.785v-.028.001-.158c0-.313.056-.588.168-.825a1.26 1.26 0 01.477-.547c.207-.128.442-.192.707-.192s.499.064.704.192c.206.127.365.309.477.547.114.237.17.511.17.822v.141zm-.662-.144c0-.333-.06-.586-.179-.759a.585.585 0 00-.485-.26l-.027.001h.001l-.025-.001a.58.58 0 00-.482.256l-.001.002c-.119.17-.179.42-.181.749v.155c0 .324.06.576.179.755s.29.268.514.268l.026.001c.2 0 .375-.101.479-.255l.001-.002c.118-.173.177-.424.179-.755v-.155zm2.783.826v-.018a.334.334 0 00-.13-.264l-.001-.001c-.087-.067-.244-.137-.471-.21a3.363 3.363 0 01-.558-.227l.019.009c-.36-.195-.54-.457-.54-.787 0-.171.048-.324.144-.458.098-.135.236-.24.417-.316s.385-.113.61-.113c.227 0 .429.042.607.124s.314.197.412.347c.099.15.149.32.149.511h-.655a.422.422 0 00-.137-.338c-.092-.082-.22-.123-.386-.123-.159 0-.284.034-.372.103a.315.315 0 00-.134.259v.008c0 .103.052.189.156.259s.258.135.46.196c.372.112.643.251.813.417s.255.372.255.618c0 .275-.104.491-.312.647s-.487.234-.839.234c-.244 0-.466-.045-.667-.133a1.081 1.081 0 01-.458-.365l-.002-.003a.934.934 0 01-.157-.522v-.019.001h.656c0 .35.209.525.628.525a.61.61 0 00.364-.094.31.31 0 00.131-.254v-.013.001zm3.491-1.811h-.973v2.644H25.8v-2.644h-.959v-.53h2.586v.53zm2.285 1.268h-1.255v.85h1.474v.525h-2.128v-3.173h2.124v.53h-1.469v.756h1.255v.513zm1.777.214h-.521v1.162h-.655v-3.173h1.18c.375 0 .664.083.868.251s.305.403.305.708a.992.992 0 01-.141.543.955.955 0 01-.419.341l-.006.002.687 1.297v.03h-.702l-.595-1.162zm-.521-.53h.528c.164 0 .291-.042.381-.124a.45.45 0 00.136-.323l-.001-.025v.001a.47.47 0 00-.129-.353c-.084-.086-.214-.129-.39-.129h-.525v.953zm3.963.573v1.119h-.654v-3.173h1.238c.238 0 .448.043.628.131.182.087.321.211.418.372s.147.342.147.548c0 .311-.107.557-.321.737-.212.179-.506.268-.883.268h-.573zm0-.529h.584c.173 0 .305-.041.394-.123.092-.081.138-.197.138-.348l.001-.023a.522.522 0 00-.139-.355.519.519 0 00-.38-.149h-.599v.997zm4.138.272h-1.255v.85h1.474v.525H37.16v-3.173h2.124v.53h-1.47v.756h1.256v.513zm3.036-1.268h-.973v2.644h-.654v-2.644h-.959v-.53h2.586v.53zm2.284 1.268h-1.256v.85h1.474v.525H42.48v-3.173h2.123v.53h-1.47v.756h1.256v.513zm1.777.214h-.521v1.162h-.655v-3.173h1.18c.375 0 .665.083.868.251s.305.403.305.708a.992.992 0 01-.141.543.955.955 0 01-.419.341l-.006.002.687 1.297v.03h-.703l-.595-1.162zm-.521-.53h.527c.164 0 .292-.042.382-.124a.45.45 0 00.136-.323l-.001-.025v.001a.474.474 0 00-.129-.353c-.084-.086-.214-.129-.391-.129h-.525v.953zm3.844.859v-.018a.329.329 0 00-.131-.264l-.001-.001c-.088-.067-.244-.137-.471-.21a3.363 3.363 0 01-.558-.227l.019.009c-.36-.195-.54-.457-.54-.787 0-.171.048-.324.144-.458s.236-.24.417-.316c.182-.075.385-.113.61-.113.227 0 .429.042.606.124s.315.197.412.347c.099.15.149.32.149.511h-.655a.422.422 0 00-.137-.338c-.092-.082-.22-.123-.386-.123-.16 0-.284.034-.372.103a.315.315 0 00-.134.259v.008c0 .103.052.189.156.259s.258.135.46.196c.372.112.643.251.813.417s.255.372.255.618c0 .275-.104.491-.312.647s-.487.234-.839.234c-.244 0-.466-.045-.667-.133a1.087 1.087 0 01-.458-.365l-.002-.003a.934.934 0 01-.157-.522v-.019.001h.656c0 .35.208.525.627.525a.614.614 0 00.365-.094.311.311 0 00.13-.253v-.014.001z"/></symbol><symbol id="icon-instagram2" viewBox="0 0 32 32"><path fill="var(--color3, #afb1b8)" d="M31.968 9.408c-.074-1.701-.349-2.869-.742-3.882a7.839 7.839 0 00-1.85-2.837l-.001-.001A7.906 7.906 0 0026.597.861l-.054-.018C25.524.449 24.362.176 22.661.101 20.949.019 20.405 0 16.059 0c-4.344 0-4.888.019-6.595.094-1.699.074-2.869.349-3.88.742a7.847 7.847 0 00-2.839 1.85l-.001.001A7.9 7.9 0 00.919 5.465l-.018.054C.506 6.538.232 7.7.157 9.401c-.082 1.712-.101 2.256-.101 6.602 0 4.344.019 4.888.094 6.595.075 1.701.35 2.869.744 3.882a7.915 7.915 0 001.849 2.837l.001.001c.8.813 1.77 1.443 2.832 1.843 1.019.395 2.182.67 3.882.744 1.707.075 2.251.094 6.595.094 4.346 0 4.89-.019 6.595-.094 1.701-.074 2.869-.349 3.882-.742a8.237 8.237 0 004.664-4.628l.019-.055c.394-1.019.669-2.182.744-3.882.075-1.707.093-2.251.093-6.595s-.006-4.888-.08-6.595zm-2.88 13.066c-.07 1.563-.333 2.406-.55 2.97a5.341 5.341 0 01-3.004 3.024l-.036.012c-.56.219-1.411.482-2.968.55-1.688.075-2.194.094-6.464.094-4.269 0-4.782-.019-6.464-.094-1.563-.069-2.406-.331-2.97-.55a4.953 4.953 0 01-1.836-1.192l-.001-.001a4.978 4.978 0 01-1.184-1.803L3.6 25.45c-.218-.563-.48-1.413-.549-2.97-.075-1.688-.094-2.195-.094-6.464 0-4.27.019-4.784.094-6.464.069-1.563.331-2.406.549-2.97a4.897 4.897 0 011.198-1.837l.002-.002a4.972 4.972 0 011.806-1.182l.034-.011c.56-.219 1.411-.48 2.968-.55 1.688-.074 2.195-.093 6.464-.093 4.275 0 4.782.019 6.464.093 1.563.069 2.406.331 2.97.55a4.91 4.91 0 011.837 1.194c.531.52.938 1.144 1.195 1.84.218.56.48 1.411.549 2.968.075 1.688.094 2.194.094 6.464 0 4.269-.019 4.768-.094 6.458z"/><path fill="var(--color3, #afb1b8)" d="M16.059 7.782a8.223 8.223 0 00-8.219 8.221v.002a8.222 8.222 0 1016.444 0 8.222 8.222 0 00-8.222-8.222h-.002zm0 13.552a5.333 5.333 0 01.001-10.666h.001a5.334 5.334 0 110 10.668zM26.525 7.458a1.92 1.92 0 01-3.84 0 1.92 1.92 0 013.84 0z"/></symbol><symbol id="icon-linkedin1" viewBox="0 0 32 32"><path fill="var(--color3, #afb1b8)" d="M31.992 32H32V20.262c0-5.741-1.235-10.163-7.947-10.163-3.227 0-5.392 1.77-6.277 3.45h-.093v-2.914h-6.365v21.363h6.627V21.42c0-2.786.528-5.48 3.978-5.48 3.398 0 3.45 3.179 3.45 5.658V32h6.619zM.528 10.635h6.635V32H.528V10.635zM3.843 0A3.843 3.843 0 000 3.843c0 2.12 1.722 3.878 3.843 3.878 2.12 0 3.842-1.757 3.842-3.878S5.965.002 3.844 0z"/></symbol><symbol id="icon-smartphone" viewBox="0 0 21 32"><path fill="var(--color4, #757575)" d="M18.133 0H3.2C1.436 0 0 1.34 0 2.987v25.89c0 1.647 1.436 2.987 3.2 2.987h14.933c1.764 0 3.2-1.34 3.2-2.987V2.987c0-1.647-1.436-2.987-3.2-2.987zM3.2 1.99h14.933c.589 0 1.067.448 1.067.996v20.911H2.133V2.986c0-.548.478-.996 1.067-.996zm14.933 27.883H3.2c-.589 0-1.067-.448-1.067-.996V25.89H19.2v2.987c0 .548-.478.994-1.067.994z"/><path fill="var(--color4, #757575)" d="M5.022 27.177a.947.947 0 010 1.407l-.001.001c-.198.182-.464.293-.755.293s-.557-.111-.756-.294l.001.001a.947.947 0 010-1.407l.001-.001c.198-.182.464-.293.755-.293s.557.111.756.294l-.001-.001z"/></symbol><symbol id="icon-twitter1" viewBox="0 0 32 32"><path fill="var(--color3, #afb1b8)" d="M32 6.078c-1.1.493-2.376.857-3.713 1.028l-.068.007a6.556 6.556 0 002.873-3.579l.013-.046a12.88 12.88 0 01-4.076 1.573l-.084.014A6.558 6.558 0 0015.6 9.557v.004c0 .52.043 1.021.152 1.496-5.454-.266-10.28-2.88-13.522-6.861a6.524 6.524 0 00-.902 3.313v.001a6.57 6.57 0 002.914 5.451 6.453 6.453 0 01-2.994-.823l.033.017v.072a6.592 6.592 0 005.213 6.44l.043.008a6.403 6.403 0 01-1.662.215h-.061.003c-.419 0-.843-.024-1.242-.112.85 2.598 3.261 4.509 6.13 4.57a13.093 13.093 0 01-8.122 2.8H1.57h.001-.062c-.531 0-1.055-.034-1.569-.099l.061.006c2.826 1.846 6.287 2.944 10.004 2.944h.063-.003c12.072 0 18.672-10 18.672-18.669 0-.288-.01-.57-.024-.848a13.203 13.203 0 003.258-3.355l.03-.047z"/></symbol><symbol id="icon-Vector" viewBox="0 0 41 32"><path d="M2.073 31.932h33.168a2.073 2.073 0 002.073-2.073v-2.764a2.073 2.073 0 00-2.073-2.073h-.691V7.789l3.925-3.718a2.085 2.085 0 10-.963-.976l-.005-.013-2.957 2.803V4.291a2.073 2.073 0 00-2.073-2.073H4.837a2.073 2.073 0 00-2.073 2.073v20.73h-.691A2.073 2.073 0 000 27.094v2.764c0 1.145.928 2.073 2.073 2.073zM39.387 1.529a.69.69 0 110 1.382.69.69 0 110-1.382zM4.146 4.293a.69.69 0 01.691-.691h27.64a.69.69 0 01.691.691v2.902l-1.382 1.313V5.675a.692.692 0 00-.692-.692H6.219a.691.691 0 00-.692.691v17.275c0 .382.31.691.692.691h24.875a.691.691 0 00.692-.691V10.408l1.382-1.31v15.923H4.146V4.293zm6.219 8.983h-.006a2.073 2.073 0 101.442 3.562l-.001.001 2.402 1.205a.692.692 0 00.825-.159l5.106-5.744 5.019 3.761c.27.201.645.18.889-.051l4.362-4.132v10.54H6.91V6.366h23.493v3.449l-4.889 4.63-5.061-3.794a.69.69 0 00-.931.092l-.001.001-5.176 5.824-1.935-.968c.014-.083.023-.167.026-.251a2.073 2.073 0 00-2.073-2.073zm.691 2.073a.69.69 0 11-1.382 0 .69.69 0 111.382 0zm4.146 11.056h6.91v.691a.69.69 0 01-.69.691h-5.528a.69.69 0 01-.691-.691v-.691zm-13.819.691a.69.69 0 01.69-.691H13.82v.691c0 1.145.928 2.073 2.073 2.073h5.528a2.073 2.073 0 002.073-2.073v-.691h11.747a.69.69 0 01.691.691v2.764a.69.69 0 01-.691.691H2.074h-.001a.69.69 0 01-.691-.691v-2.764z"/></symbol><symbol id="icon-yaandco" viewBox="0 0 29 32"><path fill="var(--color3, #afb1b8)" d="M3.84 0l4.677 4.428h13.046v12.351l4.677 4.428V.001H3.84z"/><path fill="var(--color3, #afb1b8)" d="M0 4.241v20.6h21.76v-8.188L8.655 4.246 0 4.241zm17.615 17.587H3.443V7.973h1.002V20.89h13.17v.938zM6.266 28.662l.524-1.078h.438l-.764 1.437v.838h-.397v-.838l-.764-1.437h.439l.524 1.078zm2.247.667h-.881l-.184.53h-.411l.859-2.275h.355l.861 2.275h-.413l-.186-.53zm-.77-.319h.659l-.33-.944-.33.944zm2.328.234c0-.105.029-.202.086-.289.058-.089.17-.193.339-.314a1.498 1.498 0 01-.182-.276l-.004-.008a.568.568 0 01-.052-.226c0-.179.054-.319.163-.422s.254-.156.437-.156a.57.57 0 01.406.147c.106.097.16.218.16.361v.003a.497.497 0 01-.074.262l.001-.002a.858.858 0 01-.233.236l-.003.002-.155.113.44.518a.914.914 0 00.095-.417h.33c0 .28-.065.509-.196.689l.334.396h-.44l-.128-.152a.93.93 0 01-.558.183h-.025.001c-.225 0-.405-.06-.54-.179a.597.597 0 01-.202-.447v-.021.001zm.753.343a.58.58 0 00.359-.128l-.497-.586-.049.035c-.125.095-.188.203-.188.325 0 .105.034.191.102.256a.375.375 0 00.254.099h.019-.001zm-.21-1.466c0 .088.054.197.161.33l.173-.118.049-.039a.283.283 0 00.097-.212v-.009-.002a.2.2 0 00-.067-.149.233.233 0 00-.162-.064h-.019a.224.224 0 00-.167.075.276.276 0 00-.066.179v.01zm4.134.997c-.023.243-.113.432-.269.568s-.364.204-.623.204a.902.902 0 01-.48-.128.86.86 0 01-.317-.362l-.002-.005a1.302 1.302 0 01-.117-.544v-.22c0-.214.038-.403.114-.567a.871.871 0 01.326-.378.913.913 0 01.494-.133c.251 0 .453.068.606.205s.243.329.268.578h-.394c-.019-.163-.067-.281-.144-.353-.076-.073-.188-.109-.336-.109a.464.464 0 00-.397.189c-.092.125-.138.309-.141.552v.202c0 .246.044.433.132.563s.218.194.387.194c.155 0 .272-.035.35-.105s.128-.186.148-.348h.394zm2.17-.338c0 .223-.038.419-.115.588a.88.88 0 01-.332.388.905.905 0 01-.494.134.92.92 0 01-.493-.134.897.897 0 01-.332-.38l-.002-.006a1.335 1.335 0 01-.119-.555v-.023.001-.128c0-.222.038-.418.117-.588s.19-.3.333-.389c.144-.091.308-.136.493-.136s.35.045.493.134c.143.089.255.217.333.384s.118.362.118.584v.126zm-.396-.118c0-.252-.048-.445-.143-.58a.465.465 0 00-.384-.202l-.022.001h.001-.016a.468.468 0 00-.384.2l-.001.002c-.096.133-.145.323-.147.567v.131c0 .25.049.444.146.58s.233.205.406.205c.175 0 .31-.067.403-.2.095-.133.142-.328.142-.584v-.118z"/></symbol></defs></svg>